# xmcd
#
# Track frame offsets:
#	150
#	21405
#	46875
#	53155
#	70110
#	84803
#	98443
#	112315
#	129035
#	150483
#
# Disc length: 2305 seconds
# Revision: 2
# Processed by: cddbd v1.5.2PL0 Copyright (c) Steve Scherf et al.
# Submitted via: dBpowerAMP V12.0
#
DISCID=7008ff0a
DTITLE=Martyna Jakubowicz - Maquillage
DYEAR=1983
DGENRE=Blues
TTITLE0=Albo cacy, albo lili
TTITLE1=Blues o zużytych butach i szczęśliwym końcu szerokiej drogi
TTITLE2=Instrumental Cezara
TTITLE3=Kiedy będę starą kobietą
TTITLE4=Kretyni i osły
TTITLE5=Która to faza
TTITLE6=Rosa taka sama od lat
TTITLE7=Stłucz szybę i wyrzuć klucz
TTITLE8=W domach z betonu nie ma wolnej miłości
TTITLE9=Władco świata, władco ciemności
EXTD=
EXTT0=
EXTT1=
EXTT2=
EXTT3=
EXTT4=
EXTT5=
EXTT6=
EXTT7=
EXTT8=
EXTT9=
PLAYORDER=
